<svg width="36" height="35" viewBox="0 0 36 35" fill="none" xmlns="http://www.w3.org/2000/svg">
<path d="M9.08325 2.91669L4.70825 8.75002V29.1667C4.70825 29.9402 5.01554 30.6821 5.56252 31.2291C6.1095 31.7761 6.85137 32.0834 7.62492 32.0834H28.0416C28.8151 32.0834 29.557 31.7761 30.104 31.2291C30.651 30.6821 30.9583 29.9402 30.9583 29.1667V8.75002L26.5833 2.91669H9.08325Z" stroke="white" stroke-width="2" stroke-linecap="round" stroke-linejoin="round"/>
<path d="M4.70825 8.75H30.9583" stroke="white" stroke-width="2" stroke-linecap="round" stroke-linejoin="round"/>
<path d="M23.6667 14.5833C23.6667 16.1304 23.0521 17.6141 21.9581 18.7081C20.8642 19.8021 19.3804 20.4166 17.8333 20.4166C16.2862 20.4166 14.8025 19.8021 13.7085 18.7081C12.6146 17.6141 12 16.1304 12 14.5833" stroke="white" stroke-width="2" stroke-linecap="round" stroke-linejoin="round"/>
</svg>
